HIERARCHY
ROOT Hips
{
  OFFSET 51.6663 55.696 -14.1271
  CHANNELS 6 Xposition Yposition Zposition Zrotation Xrotation Yrotation
  JOINT spine
  {
    OFFSET 0 7.96568 0.458067
    CHANNELS 3 Zrotation Xrotation Yrotation
    JOINT spine1
    {
      OFFSET 0 10.2431 0
      CHANNELS 3 Zrotation Xrotation Yrotation
      JOINT spine2
      {
        OFFSET 0 9.81475 0
        CHANNELS 3 Zrotation Xrotation Yrotation
        JOINT Neck
        {
          OFFSET 0 25.1986 1.20138
          CHANNELS 3 Zrotation Xrotation Yrotation
          JOINT Head
          {
            OFFSET 0 7.61315 0
            CHANNELS 3 Zrotation Xrotation Yrotation
            End Site
            {
              OFFSET 0 18.4281 -6.07733
            }
          }
        }
        JOINT RightShoulder
        {
          OFFSET -4.1327 10.5992 -0.575451
          CHANNELS 3 Zrotation Xrotation Yrotation
          JOINT RightArm
          {
            OFFSET 0 13.9018 0
            CHANNELS 3 Zrotation Xrotation Yrotation
            JOINT RightArmRoll
            {
              OFFSET 0 7.01788 0
              CHANNELS 3 Zrotation Xrotation Yrotation
              JOINT RightForeArm
              {
                OFFSET 0 20.4406 0
                CHANNELS 3 Zrotation Xrotation Yrotation
                JOINT RightForeArmRoll
                {
                  OFFSET 0 7.87516 0
                  CHANNELS 3 Zrotation Xrotation Yrotation
                  JOINT RightHand
                  {
                    OFFSET 0 15.8037 0
                    CHANNELS 3 Zrotation Xrotation Yrotation
                    End Site
                    {
                      OFFSET 0 0 0
                    }
                  }
                }
              }
            }
          }
        }
        JOINT LeftShoulder
        {
          OFFSET 4.1327 10.5992 -0.575451
          CHANNELS 3 Zrotation Xrotation Yrotation
          JOINT LeftArm
          {
            OFFSET 0 13.9018 0
            CHANNELS 3 Zrotation Xrotation Yrotation
            JOINT LeftArmRoll
            {
              OFFSET 0 7.01788 0
              CHANNELS 3 Zrotation Xrotation Yrotation
              JOINT LeftForeArm
              {
                OFFSET 0 20.4406 0
                CHANNELS 3 Zrotation Xrotation Yrotation
                JOINT LeftForeArmRoll
                {
                  OFFSET 0 7.87515 0
                  CHANNELS 3 Zrotation Xrotation Yrotation
                  JOINT LeftHand
                  {
                    OFFSET 0 15.8037 0
                    CHANNELS 3 Zrotation Xrotation Yrotation
                    End Site
                    {
                      OFFSET 0 0 0
                    }
                  }
                }
              }
            }
          }
        }
      }
    }
  }
  JOINT RightUpLeg
  {
    OFFSET -7.06048 -1.2947 -1.0861
    CHANNELS 3 Zrotation Xrotation Yrotation
    JOINT RightUpLegRoll
    {
      OFFSET 0 18.5308 0
      CHANNELS 3 Zrotation Xrotation Yrotation
      JOINT RightLeg
      {
        OFFSET 0 -22.9476 0
        CHANNELS 3 Zrotation Xrotation Yrotation
        JOINT RightLegRoll
        {
          OFFSET 0 23.0226 0
          CHANNELS 3 Zrotation Xrotation Yrotation
          JOINT RightFoot
          {
            OFFSET 0 19.1625 0
            CHANNELS 3 Zrotation Xrotation Yrotation
            JOINT RightToeBase
            {
              OFFSET 0 16.0188 0
              CHANNELS 3 Zrotation Xrotation Yrotation
              End Site
              {
                OFFSET 0.00678979 7.75782 -0.894206
              }
            }
          }
        }
      }
    }
  }
  JOINT LeftUpLeg
  {
    OFFSET 7.06048 -1.2947 -1.0861
    CHANNELS 3 Zrotation Xrotation Yrotation
    JOINT LeftUpLegRoll
    {
      OFFSET 0 18.5309 0
      CHANNELS 3 Zrotation Xrotation Yrotation
      JOINT LeftLeg
      {
        OFFSET 0 22.9475 0
        CHANNELS 3 Zrotation Xrotation Yrotation
        JOINT LeftLegRoll
        {
          OFFSET 0 23.2355 0
          CHANNELS 3 Zrotation Xrotation Yrotation
          JOINT LeftFoot
          {
            OFFSET 0 18.9496 0
            CHANNELS 3 Zrotation Xrotation Yrotation
            JOINT LeftToeBase
            {
              OFFSET 0 16.0188 0
              CHANNELS 3 Zrotation Xrotation Yrotation
              End Site
              {
                OFFSET -0.0304289 7.75782 -0.894206
              }
            }
          }
        }
      }
    }
  }
}
MOTION
Frames: 12
Frame Time: 0.00208333
52.5815 58.9609 -9.24177 3.45053 12.5566 6.88139 -1.03917 3.30714 -0.162844 -2.09184 10.6178 -0.129331 -2.09757 12.2622 -0.0938525 10.8959 34.9834 -7.37445 -4.70807 8.93544 -2.59096 66.5607 -1.81819 -1.89944 96.6759 22.8829 -29.1807 -3.34267e-006 5.90624e-007 -1.20464e-006 23.8008 75.8393 -23.8457 1.17024e-005 1.65993e-006 -3.00594 8.02977 -4.9514 0.697666 -51.6376 2.60159 -2.73532 -102.655 31.2323 41.3434 -1.06024e-005 7.04071e-007 2.72267e-007 -40.3986 74.8722 38.4522 6.38249e-007 -2.39385e-006 3.00655 -8.02904 -4.95144 -0.697682 48.5328 80.164 128.397 180 7.01609e-015 179.24 -155.296 78.4884 155.351 -4.82521e-006 -4.49343e-006 1.45245 -11.545 62.6935 16.4147 8.1365 25.2327 -3.48774 41.9639 84.2273 135.557 4.54188e-006 -4.6773e-006 -1.1377 9.23205 -79.4275 10.8751 7.92036e-007 2.66559e-006 -1.49325 12.2374 62.4376 -16.201 -8.13649 25.2327 3.48774 
52.5869 58.9245 -9.28651 3.36684 12.3365 6.92121 -1.02213 3.30743 -0.161239 -2.05745 10.6183 -0.129346 -2.06307 12.2628 -0.0944554 10.9119 34.9805 -7.3597 -4.76471 8.88568 -2.5723 66.6093 -1.79274 -1.89066 96.736 23.0334 -29.0387 -3.34267e-006 5.90624e-007 -1.20464e-006 23.9476 75.5921 -23.8505 1.17024e-005 1.65993e-006 -3.00594 8.02977 -4.9514 0.697666 -51.7264 2.6232 -2.73549 -102.647 31.3224 41.2 -1.06024e-005 7.04071e-007 2.72267e-007 -40.3688 74.6689 38.2802 6.38249e-007 -2.39385e-006 3.00655 -8.02904 -4.95144 -0.697682 49.3513 80.3179 127.632 180 7.01609e-015 179.236 -155.255 78.5119 155.303 -4.82521e-006 -4.49343e-006 1.45133 -11.5285 62.7029 16.4214 8.1365 25.2327 -3.48774 42.8751 84.3644 134.709 4.54188e-006 -4.6773e-006 -1.1378 9.45772 -79.4216 11.0598 7.92036e-007 2.66559e-006 -1.4932 12.212 62.4115 -16.1901 -8.13649 25.2327 3.48774 
52.5868 58.9076 -9.33303 3.28627 12.1179 6.96036 -1.00543 3.30761 -0.159433 -2.02379 10.6187 -0.128891 -2.02929 12.2632 -0.0945753 10.9283 34.9768 -7.3468 -4.82027 8.83593 -2.55545 66.6567 -1.76929 -1.88281 96.7977 23.1853 -28.894 -3.34267e-006 5.90624e-007 -1.20464e-006 24.0873 75.3397 -23.8467 1.17024e-005 1.65993e-006 -3.00594 8.02977 -4.9514 0.697666 -51.8183 2.64625 -2.73606 -102.639 31.414 41.0549 -1.06024e-005 7.04071e-007 2.72267e-007 -40.3334 74.4621 38.1012 6.38249e-007 -2.39385e-006 3.00655 -8.02904 -4.95144 -0.697682 50.198 80.4681 126.837 180 7.01608e-015 179.232 -155.219 78.5339 155.26 -4.82521e-006 -4.49343e-006 1.45022 -11.5126 62.7132 16.4286 8.1365 25.2327 -3.48774 43.8453 84.4995 133.801 4.54188e-006 -4.6773e-006 -1.13792 9.67488 -79.4144 11.2369 7.92036e-007 2.66559e-006 -1.49311 12.187 62.3864 -16.1798 -8.13649 25.2327 3.48774 
52.5733 58.8973 -9.37766 3.21082 11.9013 6.99838 -0.989452 3.30766 -0.157423 -1.99159 10.6188 -0.127892 -1.99699 12.2633 -0.0941253 10.9451 34.9724 -7.33619 -4.87426 8.78629 -2.54073 66.7029 -1.74849 -1.87623 96.8602 23.3372 -28.748 -3.34267e-006 5.90624e-007 -1.20464e-006 24.2173 75.0835 -23.8328 1.17024e-005 1.65993e-006 -3.00594 8.02977 -4.9514 0.697666 -51.9131 2.67085 -2.73711 -102.632 31.5075 40.9083 -1.06024e-005 7.04071e-007 2.72267e-007 -40.2906 74.2512 37.9135 6.38249e-007 -2.39385e-006 3.00655 -8.02904 -4.95144 -0.697682 51.0693 80.6131 126.014 180 7.01607e-015 179.229 -155.185 78.5544 155.219 -4.82521e-006 -4.49343e-006 1.44916 -11.4976 62.7244 16.4361 8.1365 25.2327 -3.48774 44.8796 84.6313 132.827 4.54188e-006 -4.6773e-006 -1.13812 9.88011 -79.4062 11.4036 7.92036e-007 2.66559e-006 -1.49301 12.1628 62.3627 -16.1701 -8.13649 25.2327 3.48774 
52.5658 58.8997 -9.40606 3.14246 11.6873 7.03482 -0.974542 3.30754 -0.155205 -1.96156 10.6185 -0.126275 -1.96688 12.2631 -0.0930184 10.9628 34.9669 -7.32826 -4.9262 8.73686 -2.52845 66.7477 -1.73102 -1.87127 96.9227 23.4872 -28.6026 -3.34267e-006 5.90624e-007 -1.20464e-006 24.3352 74.8253 -23.8075 1.17024e-005 1.65993e-006 -3.00594 8.02977 -4.9514 0.697666 -52.0107 2.69712 -2.73874 -102.627 31.6031 40.7603 -1.06024e-005 7.04071e-007 2.72267e-007 -40.2387 74.0356 37.7152 6.38249e-007 -2.39385e-006 3.00655 -8.02904 -4.95144 -0.697682 51.9606 80.7515 125.166 180 7.01607e-015 179.225 -155.152 78.5733 155.18 -4.82521e-006 -4.49343e-006 1.44821 -11.4837 62.7366 16.444 8.1365 25.2327 -3.48774 45.9826 84.7588 131.78 4.54188e-006 -4.6773e-006 -1.13845 10.07 -79.3976 11.5571 7.92036e-007 2.66559e-006 -1.49293 12.1397 62.3409 -16.1614 -8.13649 25.2327 3.48774 
52.5617 58.8642 -9.45089 3.08315 11.4765 7.06923 -0.961064 3.30723 -0.152776 -1.93445 10.6178 -0.123966 -1.9397 12.2624 -0.0911676 10.9814 34.9603 -7.32343 -4.97561 8.68774 -2.51894 66.791 -1.71753 -1.86824 96.9844 23.6337 -28.4592 -3.34267e-006 5.90624e-007 -1.20464e-006 24.4385 74.5667 -23.7694 1.17024e-005 1.65993e-006 -3.00594 8.02977 -4.9514 0.697666 -52.111 2.72517 -2.74106 -102.624 31.701 40.6114 -1.06024e-005 7.04071e-007 2.72267e-007 -40.1763 73.8148 37.5046 6.38249e-007 -2.39385e-006 3.00655 -8.02904 -4.95144 -0.697682 52.8664 80.8817 124.297 180 7.01606e-015 179.222 -155.116 78.5906 155.141 -4.82521e-006 -4.49343e-006 1.44739 -11.471 62.7499 16.4524 8.1365 25.2327 -3.48774 47.1582 84.8807 130.655 4.54188e-006 -4.6773e-006 -1.13896 10.2413 -79.3889 11.6948 7.92036e-007 2.66559e-006 -1.49289 12.118 62.3215 -16.1537 -8.13649 25.2327 3.48774 
52.5589 58.8534 -9.49811 3.03487 11.2694 7.10116 -0.949379 3.30669 -0.150133 -1.91099 10.6167 -0.120891 -1.91619 12.2612 -0.088486 11.0012 34.9525 -7.32211 -5.022 8.63903 -2.51249 66.8325 -1.70871 -1.86749 97.0446 23.7751 -28.3194 -3.34267e-006 5.90624e-007 -1.20464e-006 24.5249 74.3092 -23.7175 1.17024e-005 1.65993e-006 -3.00594 8.02977 -4.9514 0.697666 -52.2136 2.75511 -2.74414 -102.625 31.8014 40.4616 -1.06024e-005 7.04071e-007 2.72267e-007 -40.102 73.5882 37.2804 6.38249e-007 -2.39385e-006 3.00655 -8.02904 -4.95144 -0.697682 53.7805 81.0023 123.412 180 7.01606e-015 179.218 -155.076 78.606 155.099 -4.82521e-006 -4.49343e-006 1.44676 -11.4597 62.7642 16.461 8.1365 25.2327 -3.48774 48.4097 84.9956 129.449 4.54188e-006 -4.6773e-006 -1.1397 10.3908 -79.3805 11.8138 7.92036e-007 2.66559e-006 -1.49292 12.0979 62.3049 -16.1474 -8.13649 25.2327 3.48774 
52.546 58.8308 -9.54105 2.99955 11.0665 7.13015 -0.939849 3.30589 -0.147273 -1.89189 10.6149 -0.116974 -1.89708 12.2595 -0.0848865 11.0224 34.9434 -7.32472 -5.0649 8.59084 -2.50943 66.8722 -1.70521 -1.86935 97.1026 23.9097 -28.185 -3.34267e-006 5.90624e-007 -1.20464e-006 24.5923 74.0544 -23.6504 1.17024e-005 1.65993e-006 -3.00594 8.02977 -4.9514 0.697666 -52.3185 2.78707 -2.7481 -102.629 31.9046 40.3113 -1.06024e-005 7.04071e-007 2.72267e-007 -40.0144 73.3553 37.0411 6.38249e-007 -2.39385e-006 3.00655 -8.02904 -4.95144 -0.697682 54.6958 81.112 122.517 180 7.01605e-015 179.215 -155.03 78.6195 155.055 -4.82521e-006 -4.49343e-006 1.44635 -11.4502 62.7796 16.4701 8.1365 25.2327 -3.48774 49.7386 85.1024 128.157 4.54188e-006 -4.6773e-006 -1.14072 10.515 -79.373 11.9116 7.92036e-007 2.66559e-006 -1.49303 12.08 62.2916 -16.1425 -8.13649 25.2327 3.48774 
52.5308 58.8042 -9.589 2.97534 10.867 7.15664 -0.932047 3.30501 -0.143954 -1.87633 10.613 -0.111809 -1.88152 12.2576 -0.0799751 11.046 34.9338 -7.33239 -5.10497 8.54178 -2.51045 66.9118 -1.70673 -1.87383 97.1587 24.0407 -28.0502 -3.34267e-006 5.90624e-007 -1.20464e-006 24.6445 73.798 -23.5698 1.17024e-005 1.65993e-006 -3.00594 8.02977 -4.9514 0.697666 -52.429 2.82318 -2.75378 -102.633 32.012 40.1586 -1.06024e-005 7.04071e-007 2.72267e-007 -39.9197 73.1154 36.7919 6.38249e-007 -2.39385e-006 3.00655 -8.02904 -4.95144 -0.697682 55.6226 81.2124 121.603 180 7.01605e-015 179.213 -154.984 78.6306 155.011 -4.82521e-006 -4.49343e-006 1.44609 -11.4421 62.7966 16.4798 8.1365 25.2327 -3.48774 51.158 85.2021 126.769 4.54188e-006 -4.6773e-006 -1.14195 10.6161 -79.3649 11.9895 7.92036e-007 2.66559e-006 -1.49319 12.0634 62.2814 -16.1392 -8.13649 25.2327 3.48774 
52.5199 58.7709 -9.62934 2.95857 10.6695 7.18143 -0.925246 3.30421 -0.140002 -1.86284 10.6111 -0.105183 -1.86806 12.2557 -0.0735629 11.0724 34.9246 -7.3455 -5.14326 8.49072 -2.51571 66.953 -1.71229 -1.88055 97.2138 24.1725 -27.9087 -3.34267e-006 5.90624e-007 -1.20464e-006 24.688 73.5347 -23.4792 1.17024e-005 1.65993e-006 -3.00594 8.02977 -4.9514 0.697666 -52.5477 2.86487 -2.76173 -102.632 32.1244 40.0016 -1.06024e-005 7.04071e-007 2.72267e-007 -39.8247 72.8685 36.5388 6.38249e-007 -2.39385e-006 3.00655 -8.02904 -4.95144 -0.697682 56.575 81.3063 120.658 180 7.01604e-015 179.21 -154.942 78.639 154.973 -4.82521e-006 -4.49342e-006 1.44586 -11.4353 62.8156 16.4904 8.1365 25.2327 -3.48774 52.6787 85.2968 125.277 4.54188e-006 -4.6773e-006 -1.14325 10.6992 -79.3546 12.0516 7.92036e-007 2.66559e-006 -1.49331 12.0473 62.2736 -16.1371 -8.13649 25.2327 3.48774 
52.5056 58.7505 -9.67496 2.9485 10.474 7.20471 -0.91935 3.30344 -0.135516 -1.85121 10.6093 -0.0973123 -1.85649 12.2539 -0.0658715 11.1011 34.9156 -7.36326 -5.17988 8.43813 -2.52469 66.995 -1.72152 -1.88928 97.2685 24.305 -27.7617 -3.34267e-006 5.90624e-007 -1.20464e-006 24.7243 73.2653 -23.3801 1.17024e-005 1.65993e-006 -3.00594 8.02977 -4.9514 0.697666 -52.6734 2.9112 -2.77152 -102.627 32.2411 39.8409 -1.06024e-005 7.04071e-007 2.72267e-007 -39.7291 72.6154 36.2823 6.38249e-007 -2.39385e-006 3.00655 -8.02904 -4.95144 -0.697682 57.5508 81.3938 119.685 180 7.01604e-015 179.207 -154.906 78.645 154.941 -4.82521e-006 -4.49343e-006 1.44567 -11.4297 62.8362 16.5018 8.1365 25.2327 -3.48774 54.2975 85.386 123.685 4.54188e-006 -4.6773e-006 -1.14462 10.7661 -79.3424 12.0995 7.92036e-007 2.66559e-006 -1.49341 12.0318 62.268 -16.1362 -8.13649 25.2327 3.48774 
52.5031 58.7449 -9.7204 2.94438 10.2803 7.22664 -0.914266 3.30266 -0.130595 -1.84126 10.6073 -0.0884154 -1.84661 12.252 -0.0571225 11.1316 34.9065 -7.38494 -5.21493 8.38451 -2.53688 67.0373 -1.73405 -1.89975 97.3231 24.438 -27.6104 -3.34267e-006 5.90624e-007 -1.20464e-006 24.7544 72.9902 -23.2739 1.17024e-005 1.65993e-006 -3.00594 8.02977 -4.9514 0.697666 -52.8049 2.96123 -2.78273 -102.619 32.3613 39.6772 -1.06024e-005 7.04071e-007 2.72267e-007 -39.6328 72.3565 36.0227 6.38249e-007 -2.39385e-006 3.00655 -8.02904 -4.95144 -0.697682 58.5479 81.4751 118.686 180 7.01603e-015 179.205 -154.874 78.6489 154.914 -4.82521e-006 -4.49343e-006 1.44552 -11.4251 62.8584 16.5138 8.1365 25.2327 -3.48774 56.0094 85.4694 121.997 4.54188e-006 -4.6773e-006 -1.14606 10.8184 -79.3287 12.1345 7.92036e-007 2.66559e-006 -1.49348 12.0169 62.2642 -16.1362 -8.13649 25.2327 3.48774 
